<svg id="Layer_1" data-name="Layer 1" xmlns="http://www.w3.org/2000/svg" viewBox="0 0 1080 1080"><defs><style>.cls-1{fill:#1a1a1a;}</style></defs><path class="cls-1" d="M273,1051a41.16,41.16,0,0,1-6-.32l-2.54-.64a42.78,42.78,0,0,1-11.47.32q-5.41-.94-8.59-11.14a51.06,51.06,0,0,1-3.51-9.55l-.63-2.87-2.55-7-1.59-6-2.55-5.73c-1.27-4.24-2.34-8.28-3.18-12.1l-1.91-6.37-2.55-6-2.23-6.69-1.59-5.73-1.91-6.37-2.55-.64.32,7-.32,5.73a58.5,58.5,0,0,1,.64,12.1l-.64,6.37a82.53,82.53,0,0,1,.32,11.78v12.1c.42,5.09.52,8.17.32,9.23l-.64,3.19a38.34,38.34,0,0,1,0,12.1q-1,5.73-19.43,6.68h-7.32q-10.83-1.9-11.78-7.32a42.16,42.16,0,0,1-1-11.78l.64-6.37-.32-6.37-.32-6,.64-6.69a52.34,52.34,0,0,1-.32-13l.32-6.05V981a97.06,97.06,0,0,1-.32-13.69v-5.74l-.63-7,.31-5.73v-7l.64-6a149.68,149.68,0,0,1-.32-18.47,78.56,78.56,0,0,1,0-10.19l.32-2.54a59.07,59.07,0,0,1-.32-10.19l.32-3.19a72.87,72.87,0,0,1-.64-13V865.68l.32-6-.63-6.37v-7l.63-6.37q1.28-10.83,7.33-11.78,5.4-.65,18.78-.32h1q10.5.94,11.78,6.68a33.27,33.27,0,0,1,1,9.24l-.32,3.18.32,5.1v6.68l-.32,5.74-.32,7.32.32,6v12.1l.32,6V902l-.64,6.37,1,6,1.28.63,2.55-6.68a60.29,60.29,0,0,1,2.54-8.92l1.28-3.18,1.59-7.33a92.67,92.67,0,0,1,4.46-12.1l2.23-6.05,1.91-6.36,1.27-5.74,2.55-7.32,2.23-6.37a92.41,92.41,0,0,1,3.82-10.82q2.22-4.78,12.1-6l5.41-.32h6.37a31.7,31.7,0,0,1,10.82.63q5.1,1.29,3.51,12.42a40.08,40.08,0,0,1-2.87,9.56l-1.27,2.54q-.64,4.14-2.87,12.74l-2.23,6.69-2.54,5.73-1.6,5.73a83.57,83.57,0,0,1-3.18,9.55l-1.59,3.19-1.28,6.68L262.84,909l-1.91,6.37L259,921.08l-2.23,6.37-2.54,6.37.95,12.1,1.28,6.37L259,957.7l2.23,5.73,1.91,6.69,2.23,6.69,1.91,5.41,1.59,5.73,1.6,6,2.54,6,2.23,7a62.92,62.92,0,0,1,3.51,12.1l1.59,6.05,2.23,6.37a75,75,0,0,1,2.86,11.46q.65,5.42-4.14,6.69A33.16,33.16,0,0,1,273,1051Z"/><path class="cls-1" d="M395.62,1051a24.74,24.74,0,0,1-7.64-1q-7.65-2.22-10.51-11.14a79.83,79.83,0,0,1-2.23-13.05l-.32-2.87a54.61,54.61,0,0,0-1.27-6.69q-.31-2.53-3.5-6l-.64-.63a10.82,10.82,0,0,0-8-3.19h-7.64a17.36,17.36,0,0,0-7.64,2.87l-.64.32a9.94,9.94,0,0,0-4.14,7.64v2.23l-.32,6-1.27,6.37-1,6q-2.87,11.16-8.91,12.1a46.3,46.3,0,0,1-12.42.32,89.23,89.23,0,0,1-12.42-.95q-5.42-1-6.05-11.47l.64-6.68,1.27-7,.32-5.73q.31-2.55,1.91-9.55a36.06,36.06,0,0,0,1-7.33,47.13,47.13,0,0,1,.32-5.73l.64-3.18,1.59-6.37.32-1.91a32.56,32.56,0,0,0,1-8q.63-5.73,1.27-8.92l.95-6.68a66.15,66.15,0,0,1,1.6-9.24,69.11,69.11,0,0,0,1.59-7v-2.87l1.27-6,1-6.37.63-7,1-6.69,1.27-6.37.32-5.73a54,54,0,0,1,1.91-9.23,40.92,40.92,0,0,0,1.59-7l.32-3.5A45.42,45.42,0,0,1,324,874.6c.21-.85.52-3.19.95-7l.32-1.91,1.27-6.69,1-6.68,1.27-6.69a47.52,47.52,0,0,1,2.55-10.83q1.59-5.4,6.69-6.37a59.2,59.2,0,0,1,10.82-.95,64.45,64.45,0,0,1,9.24,0,25.76,25.76,0,0,0,6.68.64H367a36.19,36.19,0,0,1,10.83.31,9,9,0,0,1,7.32,6.05,41.26,41.26,0,0,1,2.23,11.79l1.28,6,.95,6.05a57.93,57.93,0,0,1,1.59,9.87,30,30,0,0,0,1,7.32l.64,1.91.95,6.37L394,887a48.46,48.46,0,0,0,1.27,7.65c.43,2.12.85,5.09,1.28,8.91l.95,6,.32,3.19a22.19,22.19,0,0,0,1.27,7.64l.64,2.55a58.66,58.66,0,0,1,1,9.23,36.06,36.06,0,0,0,.95,7.32q.63,3.51,1.28,8.6l.95,6.05,1.59,7,1,5.73.63,7,1.28,6.37.95,6.69.32,2.54a30.08,30.08,0,0,0,1,7.33l.63,2.86,1.91,12.1.32,3.19c.21,1.27.74,3.72,1.6,7.32q.63,2.86,1.27,8.28l.32,6.69q.63,11.14-11.47,13l-6.05.64Zm-37.57-81.52q2.86,0,5.73-3.18l.32-.32a11,11,0,0,0,2.55-8v-.95a87.56,87.56,0,0,1-1-13.06l-1.27-11.46-1.28-6.37-.63-6.69v-2.86c0-1.28-.22-3.82-.64-7.65a33.5,33.5,0,0,1-.64-7.64l-1-6.68-1-6-.32-6.69c-.42-2.12-.95-3.08-1.59-2.87a40.85,40.85,0,0,0-.64,6.69,22.41,22.41,0,0,1-.63,5.41l-.64,3.19-.64,7v5.42q-.32,4.14-1.91,13.37l-.95,5.41a68.46,68.46,0,0,1-.64,9.56,55.14,55.14,0,0,0-.32,7l-1,8.6q-.64,8.28-1,9.55c-.63,2.34.21,4.46,2.55,6.37A9.57,9.57,0,0,0,358.05,969.48Z"/><path class="cls-1" d="M465.36,1050.36q-11.16-1.9-12.42-13v-5.41l.32-7-.64-13.06.32-6.05.32-6.36a33.74,33.74,0,0,1-.32-10.19l.32-3.19-1-57,.32-6.69.64-6.37-.32-6-.32-6.37.32-6.37a75,75,0,0,1,0-10.19l.32-2.86-.32-6.37v-2.23a10.18,10.18,0,0,0-3.19-8,9.43,9.43,0,0,0-8.28-2.87h-1.59a77.39,77.39,0,0,1-11.46-1,7.23,7.23,0,0,1-6.37-6.37,58.37,58.37,0,0,1-.95-10.83q-.64-7.64.63-11.78,1-4.77,6.69-6.37,4.45-.95,18.47-.63l5.73-.32,13.37.64a73,73,0,0,1,13.06-.64l6.69.64a77.16,77.16,0,0,1,13.37-.64h6.37l7,.32,5.1,1q5.08,1,6,6.37a58,58,0,0,1,1,8.28l-.32,2.87A27.59,27.59,0,0,1,524,857.4q-1,5.42-11.79,6.69h-6l-2.54.32a14.6,14.6,0,0,0-7.33,3.18,8.87,8.87,0,0,0-3.82,8l.32,2.23v5.73l-.32,7.32-.32,5.42.64,7.32.32,5.73a92,92,0,0,1-.32,9.87l-.64,2.55.64,7v7l-.32,5.42-.32,6.68v13.38l.32,5.73.32,6.37-.32,6.68-.32,6v7.33l.32,6c.43,5.09.53,8.17.32,9.23l-.64,2.87.32,6.68.64,6.37v1q0,12.73-1,17.83-.94,4.77-7,6.37-4.78,1.26-18.79.63Z"/><path class="cls-1" d="M572,1051l-5.41-.32a65.52,65.52,0,0,1-12.73-.64q-5.75-.63-6.37-6.68c-.43-5.1-.54-8.17-.32-9.24l.32-3.18-.64-6-.32-6.37.64-6.69-.32-6.36-.32-6.05v-6.37l.64-6.69-.32-5.41.32-7-.32-6.05.32-6.37c-.43-5.73-.53-9.12-.32-10.19l.32-3.18a122.35,122.35,0,0,1,0-12.74V930a122.74,122.74,0,0,1,0-12.74l.32-6.36-.32-7.33.32-5.73-.32-6.05-.32-6.37v-6.37l.32-6.68-.64-6.37.32-7,.32-5.41v-7.32a57.92,57.92,0,0,1,.32-10.83q.32-5.73,6.37-6.69a33.05,33.05,0,0,1,9.23-1l3.82.32a42.48,42.48,0,0,1,12.74,0,7.44,7.44,0,0,1,6.68,6.68,53.44,53.44,0,0,1,.64,11.47l.32,6.68-.64,7v5.41l-.32,6.37.32,7.32.64,12.42A87.29,87.29,0,0,1,587,901l-.64,3.19.32,7,.64,12.1v6.05l-1,7.33a41.31,41.31,0,0,1,.64,9.23l-.64,2.87,1,7v5.73l-.32,7V981l.32,7-.64,6.37v7.32q0,3.51,3.19,7.65a9.77,9.77,0,0,0,7.64,3.18h8l10.83.64a28.94,28.94,0,0,1,12.1.63q5.08,1.29,7,11.15a65.66,65.66,0,0,1-.64,12.74q-.32,11.46-11.78,13h-6.68a66.2,66.2,0,0,1-9.24,0l-2.86-.32-6.69.64-6.69-.32-5.73-.64A91.87,91.87,0,0,1,572,1051Z"/><path class="cls-1" d="M745.24,1051a24.74,24.74,0,0,1-7.64-1q-7.64-2.22-10.51-11.14a79.83,79.83,0,0,1-2.23-13.05l-.31-2.87a54.23,54.23,0,0,0-1.28-6.69q-.32-2.53-3.5-6l-.64-.63a10.8,10.8,0,0,0-8-3.19h-7.64a17.41,17.41,0,0,0-7.64,2.87l-.64.32a9.94,9.94,0,0,0-4.14,7.64v2.23l-.32,6-1.27,6.37-.95,6q-2.88,11.16-8.92,12.1a46.3,46.3,0,0,1-12.42.32,89.23,89.23,0,0,1-12.42-.95q-5.41-1-6-11.47l.64-6.68,1.27-7,.32-5.73q.32-2.55,1.91-9.55a36.18,36.18,0,0,0,1-7.33,45.19,45.19,0,0,1,.32-5.73l.63-3.18,1.59-6.37.32-1.91a32.56,32.56,0,0,0,1-8q.63-5.73,1.27-8.92l1-6.68a65.15,65.15,0,0,1,1.59-9.24,66.41,66.41,0,0,0,1.59-7v-2.87l1.28-6,1-6.37.64-7,.95-6.69,1.28-6.37.31-5.73a53.94,53.94,0,0,1,1.92-9.23,42,42,0,0,0,1.59-7l.32-3.5a44.82,44.82,0,0,1,1.27-9.23q.31-1.27.95-7l.32-1.91,1.28-6.69,1-6.68,1.28-6.69a47.41,47.41,0,0,1,2.54-10.83q1.59-5.4,6.69-6.37a59.24,59.24,0,0,1,10.83-.95,64.32,64.32,0,0,1,9.23,0,25.79,25.79,0,0,0,6.69.64h2.23a36.12,36.12,0,0,1,10.82.31,9,9,0,0,1,7.33,6.05A41.61,41.61,0,0,1,737,846.26l1.28,6,1,6.05a58.3,58.3,0,0,1,1.6,9.87,30,30,0,0,0,1,7.32l.64,1.91,1,6.37.32,3.18a47.36,47.36,0,0,0,1.28,7.65q.63,3.18,1.27,8.91l.95,6,.32,3.19a22.19,22.19,0,0,0,1.28,7.64l.63,2.55a58.66,58.66,0,0,1,1,9.23,36.79,36.79,0,0,0,.95,7.32c.43,2.34.85,5.21,1.28,8.6l.95,6.05,1.59,7,1,5.73.64,7,1.27,6.37,1,6.69.31,2.54a30.08,30.08,0,0,0,1,7.33l.64,2.86,1.91,12.1.32,3.19c.2,1.27.74,3.72,1.59,7.32q.63,2.86,1.27,8.28l.32,6.69q.63,11.14-11.46,13l-6,.64Zm-37.57-81.52q2.87,0,5.73-3.18l.32-.32a10.92,10.92,0,0,0,2.55-8v-.95a87.56,87.56,0,0,1-1-13.06L714,932.55l-1.27-6.37-.64-6.69v-2.86c0-1.28-.22-3.82-.64-7.65a33.5,33.5,0,0,1-.64-7.64l-1-6.68-1-6-.31-6.69c-.43-2.12-1-3.08-1.6-2.87a41.85,41.85,0,0,0-.63,6.69,22.41,22.41,0,0,1-.64,5.41l-.64,3.19-.63,7v5.42q-.33,4.14-1.91,13.37l-1,5.41a67,67,0,0,1-.64,9.56,55.6,55.6,0,0,0-.31,7l-1,8.6q-.65,8.28-1,9.55c-.63,2.34.21,4.46,2.55,6.37A9.59,9.59,0,0,0,707.67,969.48Z"/><path class="cls-1" d="M884.71,1051a70.15,70.15,0,0,1-9.55-1,11.76,11.76,0,0,1-8.6-5.73,72.21,72.21,0,0,1-5.1-10.19l-2.54-6.68-2.87-5.1-2.55-6.05-2.86-6-2.23-6-1.91-6.05-3.19-6.37a65.22,65.22,0,0,1-3.82-8.59l-1-3.51a46,46,0,0,1-4.78-11.14l-2.55-6.69L828,956.11q-3.18-6.69-3.82-8.6l-1-3.18-.63,6.37a89.53,89.53,0,0,1-.32,13v6a44.64,44.64,0,0,1,.32,8.6l-.32,3.18a141,141,0,0,1,1,18.79v.64l-.63,6,.32,6.05v18.47l-.32,6.05q-1.61,12.11-7,12.41a29.52,29.52,0,0,1-9.55.32l-3.5-.32a44.84,44.84,0,0,1-11.78-.31,7.21,7.21,0,0,1-6.37-6.37,66.27,66.27,0,0,1-1-12.1l-.32-6.69.32-6v-6.37l-.32-5.73V999.1a80,80,0,0,1-.32-11.78l.64-7-.64-6.69v-12.1l.32-6.68.32-6.37-.64-5.73-.31-6.37a70.83,70.83,0,0,1,.63-9.87l.32-2.87v-7.32l-.64-6.37.64-51-.64-5.73-.31-7a55.75,55.75,0,0,1,1.27-11.47q1-6,11.14-7a47.16,47.16,0,0,1,11.15,0q10.19.94,15.6,11.14l2.87,5.73,1.59,6.05a59.65,59.65,0,0,1,4.78,10.83l2.23,5.73c2.54,4.89,3.92,8,4.13,9.24l1,3.18A49.22,49.22,0,0,1,843,890.83l2.54,5.1,2.55,6.37,2.23,6.37,1.91,5.09,2.55,6.37a52.91,52.91,0,0,1,3.18,8.28l1,3.5,2.86,5.41-.32-6.36.64-6.69.32-6.69-.64-5.73v-6.69l.64-6.36-.32-6.37L861.78,860l.64-6.69v-6.37q-.64-7.95.64-12.1.95-5.09,6.37-6a76.39,76.39,0,0,1,12.41-1,91,91,0,0,1,12.74.32q5.08.32,6.69,12.73l.32,5.73v6.37l.31,6.37-.31,6.05.31,6.69a74.7,74.7,0,0,1-.63,13.37v12.1l1,31.53-.32,6.36-.31,7-.32,5.73.32,6.69-.32,7,.63,15.61-.63,3.5.63,5.73-.31,31.52-.32,6.37.63,7-.31,5.73q-1.29,11.46-7.33,12.42A42.83,42.83,0,0,1,884.71,1051Z"/><path class="cls-1" d="M768,629.11c-.06-2.24-1.2-4.47-1.38-6.78s.14-4.55-.14-6.86-.76-4.48-1.1-6.84-.11-4.6-.49-6.94-1.62-4.37-2-6.69-.34-4.6-.78-6.9-.11-4.67-.58-7-2.26-4.23-2.76-6.51-.52-4.61-1-6.87-1-4.52-1.49-6.78-1.94-4.28-2.49-6.53-.59-4.61-1.15-6.85-1.41-4.42-2-6.65-.24-4.72-.82-6.94-1.87-4.31-2.45-6.52-1.74-4.35-2.33-6.55.51-5-.09-7.15-2.93-4-3.54-6.22-.7-4.67-1.31-6.82c-.65-2.31-.6-4.73-1.21-6.86-.67-2.34-2.44-4.24-3.05-6.33-.69-2.4-1-4.71-1.63-6.74-.75-2.53-.4-5.07-1-6.94-1.13-3.74-1.88-6.07-2.05-6.63-.5-1.64-2.41-2.6-4.09-3-.33-.07-.64-1-1-1-1.34,0-2.34,1.65-3.25,2.69-.15.17-1.89,1.94-4.31,4.86-1.21,1.46-2.36,3.37-3.87,5.26-1.27,1.6-3.57,2.59-5,4.4s-1.8,4-3.09,5.83c-1.51,2.08-2.42,4.3-3.62,6.11-1.46,2.19-2.66,4.15-3.73,6-1.37,2.37-3.24,4-4.06,5.83-1.2,2.72-2.46,4.84-2.73,6.66-.48,3.21,1.46,4.92,2.49,6.49.71,1.07.67,3.74,2.09,6.55.87,1.72,2.79,3.29,3.83,5.61.85,1.87,2.11,3.79,3,6,.81,1.95.48,4.49,1.32,6.7.76,2,1.65,4.06,2.42,6.26s1,4.31,1.67,6.52,1.56,4.12,2.2,6.33,2.42,3.94,3,6.16.1,4.55.61,6.77,2,4.12,2.46,6.35-.82,4.68-.43,6.92,1.14,4.31,1.47,6.55.35,4.43.62,6.68,2.06,4.32,2.2,6.54-1,4.53-1,6.76-.67,4.43-.79,6.66.92,4.54.68,6.76-1,4.37-1.4,6.57-1.48,4.24-2,6.42.6,4.77,0,6.91-2.89,3.77-3.64,5.87-.86,4.43-1.73,6.49-1.43,4.27-2.42,6.27-2.35,3.82-3.46,5.76-2.21,3.88-3.44,5.75-3.13,3.23-4.47,5-2.23,3.89-3.68,5.6-2.55,3.72-4.1,5.34-3.75,2.81-5.59,4.3-3,3.79-5.08,5-4.86.74-7,1.79-4.06,2-6.34,2.88c-2.11.81-3.94,2.66-6.27,3.37-2.17.65-4.36,1.63-6.73,2.21-2.2.53-4.7.16-7.08.64-2.09.42-4.14,1.57-6.4,2s-4.44-.15-6.71.17-4.38.07-6.65.34-4.28,1-6.55,1.21-4.29,1.07-6.56,1.26-4.38.15-6.65.31-4.35.64-6.62.77-4.41-.29-6.67-.18-4.36.9-6.62,1-4.42-.52-6.68-.44-4.37.9-6.63,1-4.42-1.12-6.68-1.07-4.39,0-6.65.07-4.39.8-6.64.82-4.4.35-6.65.36-4.41-1.41-6.66-1.41S535.3,721,533,721s-4.63-.39-6.91-.42-4.63.25-6.91.19-4.65.57-6.93.5-4.63-.32-6.91-.42-4.58-1.15-6.85-1.28-4.59-.74-6.86-.91-4.71.82-7,.62-4.56-1-6.82-1.27-4.5-1.32-6.76-1.61-4.58-.56-6.82-.91-4.87,1-7.1.56-4.28-2.27-6.5-2.75-4.45-1.23-6.65-1.79-4.39-1.37-6.57-2-4.52-1-6.66-1.73-4.14-2-6.24-2.91-4.37-1.45-6.42-2.44-4.74-.94-6.73-2.06-3.79-2.72-5.7-4-4.17-2.17-6-3.57-2.83-3.83-4.55-5.37-3.28-3.17-4.87-4.85-4-2.46-5.42-4.17-1.65-4.41-3-6.2-3.25-3.16-4.47-5-2.77-3.57-3.88-5.51-1.81-4.13-2.8-6.13-2.28-3.89-3.15-5.95-.37-4.64-1.11-6.75-1.53-4.15-2.15-6.3-2-4.09-2.46-6.27-1.18-4.33-1.55-6.54.42-4.55.18-6.78-1.05-4.37-1.16-6.61-1-4.46-1-6.7.18-4.5.32-6.74,1.46-4.35,1.72-6.58.31-4.49.63-6.69.17-4.54.55-6.71.54-4.51,1-6.67,1.52-4.3,2-6.44,1-4.41,1.55-6.54,1.33-4.33,1.94-6.43,1.22-4.37,1.88-6.45.67-4.58,1.38-6.62c.76-2.21,2.77-3.86,3.53-5.87.84-2.21,1.84-4.19,2.65-6.15.92-2.23.76-4.73,1.61-6.61,1-2.31,2.06-4.33,2.93-6a41.84,41.84,0,0,1,3.62-5.66c1-1.46.8-3.46.69-6.59-.07-1.79.61-4.08-.13-6.8-.52-1.88-2.33-3.63-3.27-6.07-.73-1.91-1.34-4.06-2.38-6.35-.86-1.91-.5-4.6-1.6-6.8-.93-1.87-2.8-3.25-3.73-5s-2.09-3.66-3-5.35c-1.11-2-2.67-3.5-3.56-5a38.79,38.79,0,0,1-2.65-5.57c-.87-1.4-2.14-3.35-3.77-3.35-.13,0-.26.91-.39.92-1.77.14-3.83,1.09-4.51,2.73-.22.54-.81,2.93-2.25,6.54-.72,1.81-1.62,3.94-2.58,6.39-.77,2-2,4-2.87,6.29-.77,2-.26,4.69-1.11,7-.78,2.07-2.08,4-2.91,6.28s-1.51,4.27-2.32,6.5S340.75,497,340,499.2s-.83,4.55-1.6,6.76-1.44,4.34-2.2,6.54-2,4.15-2.78,6.35-1.79,4.24-2.5,6.45-.83,4.56-1.53,6.76-.5,4.66-1.17,6.86-2,4.2-2.66,6.4-.65,4.61-1.27,6.81-2.35,4.14-2.94,6.34-1.22,4.47-1.78,6.68,0,4.76-.52,7-1.71,4.36-2.18,6.58.13,4.75-.29,7-2.48,4.29-2.83,6.51-.54,4.66-.8,6.87.13,4.57-.05,6.78.12,4.52.05,6.74-.91,4.5-.88,6.72,1.29,4.45,1.44,6.67-.9,4.6-.63,6.82.78,4.45,1.18,6.65.89,4.42,1.42,6.6.72,4.49,1.39,6.64,1.68,4.19,2.47,6.3,1.35,4.32,2.27,6.39,2.61,3.73,3.63,5.75,1.89,4.06,3,6,1.7,4.2,2.93,6.12,3.46,3.06,4.76,4.94,1.55,4.39,2.92,6.21,3.64,2.82,5.07,4.59,3.13,3.18,4.62,4.91,2.28,3.92,3.82,5.6,3.7,2.63,5.28,4.28,2.7,3.59,4.33,5.11,2.87,3.51,4.58,4.94,3.49,2.83,5.28,4.16,3.62,2.67,5.48,3.91,4.34,1.47,6.26,2.61,3.65,2.58,5.64,3.62,3.59,2.81,5.62,3.76,4.68.43,6.75,1.29,3.93,2.13,6,2.9,4.1,1.76,6.24,2.46,4.23,1.38,6.39,2,4.38.84,6.56,1.39,4.25,1.36,6.45,1.85,4.36.9,6.56,1.32,4.31,1.25,6.52,1.62,4.35,1.14,6.57,1.46,4.43.62,6.66.89,4.62-1.13,6.85-.89,4.31,1.81,6.54,2,4.52-.56,6.76-.4,4.36,1.73,6.6,1.86,4.5-.33,6.74-.22,4.49-.66,6.73-.57,4.46.32,6.7.38,4.46,0,6.7,0,4.45.83,6.69.86,4.48-1.14,6.72-1.12,4.45,1.47,6.69,1.48,4.47-1,6.7-1c2,0,4.11-.31,6.18-.28l6.17.09c2,.05,4.06,1.69,6.13,1.75s4.09.25,6.16.32,4.14-1.34,6.22-1.27,4.43,1.11,6.68,1.18,4.5-1,6.75-1,4.46.38,6.7.43,4.46.81,6.71.84,4.48-.89,6.71-.89,4.5,1.32,6.77,1.29,4.47-.81,6.73-.88,4.51.23,6.77.11,4.49-.34,6.74-.51,4.55.24,6.79,0,4.37-1.42,6.61-1.72,4.46-.56,6.68-.93,4.59,0,6.8-.47,4.49-.72,6.67-1.27,4-2.58,6.13-3.22,4.26-1.35,6.39-2.09,4.63-.49,6.72-1.35,4.22-1.66,6.25-2.63,3.88-2.36,5.86-3.44,3.54-2.83,5.46-4,3.78-2.36,5.63-3.68,3.82-2.37,5.58-3.81,3.4-2.92,5.07-4.46,3.9-2.46,5.47-4.11,3-3.49,4.52-5.1,2.6-3.86,4.06-5.5,3-3.49,4.42-5.16,3.53-3.07,4.9-4.78,1.56-4.59,2.87-6.35,2.85-3.57,4.07-5.39,3.46-3.23,4.6-5.12,1.86-4.2,2.89-6.18,1.31-4.38,2.22-6.43,2.75-3.79,3.53-5.93,1.26-4.38,1.89-6.58,1.36-4.35,1.84-6.59,1-4.44,1.34-6.72.23-4.54.42-6.84-.18-4.52-.13-6.84S768.08,631.43,768,629.11Z"/><path class="cls-1" d="M558.58,197c2.08-1.21,3.83-3.08,5.67-4.62a42.63,42.63,0,0,0,4.88-5.33,42.26,42.26,0,0,0,4.51-5.66,41.6,41.6,0,0,0,2.94-6.64c.82-2.22.36-4.79.78-7.18a40.08,40.08,0,0,0,1.11-7c0-2.44.45-4.9,0-7.22a40.57,40.57,0,0,0-2.24-6.87,40.5,40.5,0,0,0-3.1-6.47,42.18,42.18,0,0,0-3.86-6.1,41.39,41.39,0,0,0-5-5.25,31,31,0,0,0-12.4-7.58c-2.23-.82-4.78-1-7.17-1.38a37.37,37.37,0,0,0-14.35.35c-2.39.42-4.91.47-7.14,1.28s-4.19,2.47-6.25,3.67a40.42,40.42,0,0,0-5.76,4.23c-1.84,1.54-4,2.79-5.55,4.63s-2.06,4.37-3.26,6.45-3.28,3.73-4.11,6-.4,4.83-.82,7.21-1.3,4.62-1.3,7.06-.45,5,0,7.3,2,4.52,2.77,6.75a41.22,41.22,0,0,0,2.67,6.7c1.2,2.08,2.14,4.49,3.68,6.32s3.81,3.1,5.65,4.64,4.22,2.26,6.3,3.47,3.63,3.59,5.89,4.42,5-.36,7.42.06,4.55,2.2,7,2.2,4.83-.89,7.16-1.29,4.47-1.67,6.7-2.49S556.52,198.22,558.58,197ZM537.53,169c-2.37,0-4.93-.35-6.49-1.91s-1.18-4.12-1.18-6.5-.63-5.19.92-6.75,4.38-1.2,6.75-1.2,4.62.22,6.18,1.78a8.49,8.49,0,0,1,2.13,6.17c0,2.38-1.32,3.88-2.87,5.44S539.91,169,537.53,169Z"/><path class="cls-1" d="M375,199.26c.12,2.39-.75,4.8-.52,7.08s1.56,4.58,1.9,6.83c.36,2.4.19,4.79.63,7,.47,2.4,1.5,4.56,2,6.72.61,2.42,1.11,4.69,1.74,6.78.74,2.47,1.38,4.72,2.08,6.68,1,2.72,2.18,4.76,2.88,6.38.87,2.05,1.4,4.2,2.35,6.14s1.54,4.18,2.59,6.08,2.19,3.85,3.33,5.69,2.48,3.68,3.7,5.46,2.13,3.95,3.44,5.67,3.06,3.25,4.45,4.9,3,3.28,4.45,4.87,3.39,2.88,4.92,4.39,2.81,3.5,4.39,4.93,3.81,2.41,5.44,3.76,2.69,3.85,4.37,5.1c1.85,1.41,4,2.18,5.73,3.34,2,1.35,3.6,2.94,5.28,4,1.85,1.13,4.26,1.21,6.06,2.21s3.6,2.36,5.43,3.27,3.79,2.09,5.64,2.91c2.05.91,4.35.84,6.19,1.56,2.16.84,3.85,2.33,5.66,2.94,2.37.8,4.3,1.83,5.94,2.28,2.15.59,4.36.7,6.4,1.18s4.33.7,6.38,1.09,4.33.63,6.39.93c2.22.31,4.29,1.06,6.37,1.25s4.35.9,6.44,1,4.42.35,6.5.33c2.24,0,4.39-.76,6.47-.9,2.24-.15,4.38-.46,6.45-.7s4.29-1,6.36-1.3,4.54.65,6.6.31c2.45-.39,4.67-1.64,7-2s4.84.09,7.2-.08,4.77-1.86,7.19-1.74,4.65,1.37,7.09,1.84c2.24.43,4.85.12,7.25.94,2.14.73,3.79,3.05,6.11,4.14a51.58,51.58,0,0,1,5.72,3.54,48.31,48.31,0,0,1,5.65,3.72,57,57,0,0,1,5.08,4.54,63.49,63.49,0,0,1,4.49,5.15c1.31,1.73,2.48,3.68,3.74,5.72,1.14,1.86,3.05,3.43,4.13,5.57,1,1.95,2,4.05,2.92,6.24.85,2,1.55,4.25,2.32,6.5.72,2.08.27,4.61.91,6.89.59,2.12.83,4.38,1.35,6.68s1.1,4.47,1.42,6.72,2.07,4.47,2.21,6.74-.84,4.69-.88,7-.85,4.56-1,6.83,1.07,4.82.71,7.06-1.21,4.54-1.71,6.76-.91,4.6-1.53,6.78-2,4.28-2.73,6.4-2.22,4.17-3,6.25c-.87,2.25-1.33,4.54-2.18,6.57-1,2.26-1.9,4.38-2.76,6.34-.74,1.69-1.52,3.24-2.14,4.7-.9,2.11-1.09,4.46-1.85,6.53s-2.43,4-3.09,6.09-.89,4.46-1.42,6.63-.49,4.5-.89,6.71-1.74,4.29-2,6.54,1.08,4.58,1,6.86-.92,4.41-.94,6.7-.71,4.47-.62,6.78.79,4.42,1,6.72.12,4.46.36,6.76.4,4.43.71,6.72,1,4.34,1.39,6.62,1.4,4.27,1.79,6.55.09,4.49.51,6.76.66,4.4,1.1,6.66.26,4.49.73,6.74,1,4.34,1.5,6.59,1.53,4.23,2,6.48,1.61,4.2,2.12,6.45,1.23,4.28,1.74,6.52-.15,4.6.36,6.84,2.3,4,2.82,6.27.11,4.56.63,6.79,1.23,4.29,1.76,6.52.37,4.5.89,6.72.75,4.41,1.28,6.64c.19.81,1.68,1.07,2.25,1.67,1.16,1.23,1.82,2.8,2.85,3.9,1.74,1.88,3.81,3.23,5.43,4.83,1.81,1.81,3.07,4,4.93,5.37a23.8,23.8,0,0,0,6.56,3.21c2.15.71,4.54.37,7.19.37.57,0,1.16.52,1.76.48,1.45-.09,2.33-1.13,3.16-2.33a4.11,4.11,0,0,0,.92-3.74c-.68-2.17-1.6-4.27-2.24-6.43s-1.77-4.23-2.38-6.4-1-4.44-1.61-6.62-.58-4.55-1.13-6.74-.87-4.46-1.39-6.65-1.94-4.23-2.42-6.43.44-4.74,0-7-1.51-4.33-1.92-6.55-1.45-4.36-1.82-6.58-.8-4.49-1.13-6.72-.26-4.56-.55-6.8.23-4.6,0-6.84-.74-4.49-.94-6.73-1.17-4.47-1.32-6.72.12-4.57,0-6.82,0-4.55,0-6.8-.71-4.55-.71-6.8,1.19-4.53,1.24-6.79-.07-4.53,0-6.78-.8-4.61-.64-6.85,1-4.49,1.24-6.73,1.25-4.42,1.53-6.66.56-4.49.9-6.72-.45-4.67-.05-6.89,1.42-4.36,1.88-6.57.56-4.53,1.09-6.72,2.21-4.11,2.8-6.29.1-4.69.77-6.85,2-4.12,2.72-6.26c.67-2,1.46-3.89,2.18-5.86s1.16-4,1.91-6,1-4.08,1.72-6.06c.82-2.13,2.94-3.79,3.77-6s1.58-4.34,2.38-6.52.76-4.63,1.5-6.83,2.2-4.15,2.86-6.38,0-4.78.61-7,1.17-4.44,1.63-6.71.57-4.55.9-6.85,1.36-4.46,1.54-6.78,1-4.59,1-6.92-1.16-4.59-1.31-6.92.42-4.67.09-7-1.07-4.49-1.57-6.78-.65-4.59-1.32-6.85-1.47-4.48-2.18-6.64-2.64-4.06-3.41-6.19-1.51-4.43-2.35-6.54-1.55-4.43-2.47-6.5-2.45-4-3.46-6-1.23-4.65-2.35-6.62-1.95-4.35-3.2-6.24-2.79-3.84-4.17-5.64-4-2.78-5.5-4.47-2.72-3.84-4.4-5.38a69,69,0,0,0-5.39-4.39c-1.88-1.4-4.07-2.27-6-3.56s-3.69-2.81-5.63-4-3.43-3.34-5.43-4.46-4.28-1.88-6.32-2.91-4.32-1.75-6.41-2.69-4.25-1.87-6.37-2.73-4.06-2.44-6.21-3.2-4.79-.37-7-1-4.54-1-6.74-1.55-4.3-1.94-6.52-2.44-4.69-.26-6.92-.68-4.58-.75-6.81-1.08-4.55-1.16-6.79-1.41-4.58-1.49-6.81-1.65c-2.4-.18-4.72-.56-6.94-.64a49.7,49.7,0,0,1-6.13-.58c-2.08-.33-4.21-.08-6.21-.67a36.83,36.83,0,0,1-11.67-4.59,48.45,48.45,0,0,1-5.2-3.58c-1.62-1.31-2.71-3.22-4.16-4.75s-2.75-3.65-4.33-5.55c-1.45-1.74-2.87-3.56-4.3-5.53s-3.89-3-5.17-5-2.55-4-3.67-6.11-.52-4.91-1.46-7.12-3.27-3.74-4-6,0-4.87-.54-7.2-2.66-4.22-3-6.59,0-4.75-.16-7.14-.46-4.67-.45-7.08c0-2.24,1.4-4.42,1.62-6.7s-.33-4.56.08-6.81.93-4.41,1.51-6.62,1-4.43,1.7-6.59,1.85-4.13,2.74-6.23.91-4.58,1.94-6.62,3-3.53,4.15-5.5,2.24-3.93,3.51-5.82,2.95-3.19,4.3-4.86,2.06-4,3.55-5.51,3.94-2.11,5.57-3.52,3.07-3,4.82-4.26,3.48-2.5,5.34-3.6,3.22-3.18,5.18-4.11,4.54-.34,6.58-1.1,4-1.45,6.09-2,4.12-1,6.26-1.41c2.34-.42,4.51-1.82,6.83-2a70.22,70.22,0,0,1,7.09-.26c2.36,0,4.6,1.44,6.93,1.71s4.62.44,6.91.94,4.67.62,6.9,1.36a65.41,65.41,0,0,1,6.5,2.69c2.14,1,4.76,1,6.81,2.22s3.25,3.64,5.17,5,4,2.47,5.8,4,3,3.67,4.58,5.35a67.33,67.33,0,0,1,4.52,5.29c1.47,1.89,4.3,2.79,5.51,4.76s1.35,4.7,2.3,6.81a50.9,50.9,0,0,1,2.33,6.6,45.18,45.18,0,0,1,1.89,6.78,39.18,39.18,0,0,1,0,7c-.1,2.36-.72,4.56-1,6.75-.31,2.35-.31,4.61-.8,6.77a62.36,62.36,0,0,1-2.2,6.44c-.77,2.23-1,4.54-2,6.55a53.61,53.61,0,0,1-3.54,5.84,52.28,52.28,0,0,1-3.9,5.62c-1.5,1.76-3.7,2.72-5.38,4.24a56.6,56.6,0,0,1-5,4.58,58.54,58.54,0,0,1-5.65,3.84c-2,1.08-4.38,1.3-6.5,2.14s-3.87,2.75-6.06,3.38-4.64.23-6.88.64-4.41,1.5-6.66,1.71-4.61.59-6.87.59c-2,0-3.95.73-4.64,2.58s-.38,4.51,1.12,5.81c1.8,1.56,4.29,2.26,6.19,3.64s3.93,2.62,5.95,3.82,4,2.65,6.08,3.65,4.53,1.42,6.74,2.21,4.23,2.4,6.51,3a67.54,67.54,0,0,0,7,1.76c2.36.33,4.84-.41,7.19-.35a59.62,59.62,0,0,0,7.08-.33,56.68,56.68,0,0,0,7-1.06c2.31-.5,4.8-.5,7-1.29a59.13,59.13,0,0,0,6.57-2.51c2.11-1.06,3.36-3.56,5.26-4.8s4.64-1.59,6.4-3,3.6-3.15,5.2-4.69c1.78-1.7,3.14-3.66,4.57-5.28,1.73-2,3.72-3.4,4.92-5a27.19,27.19,0,0,0,3.55-6.07c.4-.71.4-.71.79-1.44l0,0c.29-.55-.7-1.05-.42-1.6a35.73,35.73,0,0,0,3-6.27c.7-1.87,2-3.91,2.85-6.43.68-2,.92-4.43,1.61-6.84.61-2.14,1.3-4.38,1.87-6.74s1.92-4.32,2.38-6.67-.13-4.74.21-7.09.57-4.6.77-6.95,0-4.64.06-7,1-4.69.85-7-.86-4.39-1.19-6.62-.92-4.33-1.41-6.53-.06-4.59-.69-6.76-1.16-4.35-1.93-6.47-1.89-4.08-2.78-6.15-2.28-3.86-3.29-5.88-2.47-3.72-3.58-5.67-1.51-4.29-2.71-6.19-3.16-3.25-4.45-5.08-2.91-3.36-4.29-5.13-2.45-3.72-3.91-5.42-2.08-4.15-3.62-5.77-4.13-2.2-5.74-3.74-3.07-3.23-4.76-4.69-2.77-3.7-4.53-5.06-4.34-1.65-6.17-2.92-3-3.52-4.95-4.69S599,45.7,597,44.64s-3.94-2.17-6-3.11-3.62-3.08-5.73-3.91-4.68-.41-6.83-1.12-4.2-1.72-6.39-2.31-4.46-.73-6.69-1.19-4.46-.58-6.71-.92S554.29,31,552,30.77s-4.48-.58-6.75-.69-4.52.45-6.79.45-4.55-1.29-6.83-1.18-4.51.59-6.78.8-4.54.17-6.81.48-4.27,1.88-6.52,2.27-4.59,0-6.82.48-4.4,1.61-6.59,2.17-4.42,1.47-6.57,2.11-4.41,1.49-6.53,2.2-4.57,1.1-6.64,1.88c-2.27.85-4.28,2-6.29,2.83-2.29,1-4.46,1.72-6.38,2.59-2.39,1.1-4.76,1.52-6.5,2.4-3.33,1.69-5.42,3-6.06,3.35-2,1.15-3.94,2.31-5.84,3.54s-3.19,3.38-5.05,4.7-3.76,2.51-5.55,3.91-3.8,2.51-5.53,4-4.15,2.21-5.81,3.77-2.29,4.17-3.88,5.8-3.94,2.53-5.46,4.23-3,3.42-4.48,5.18-2.78,3.62-4.16,5.43-2.25,4-3.55,5.86-3.22,3.33-4.44,5.26S398,109,396.84,111s-3.19,3.43-4.25,5.45-1.23,4.28-2.17,6.25-2.28,3.76-3.14,5.77-1.23,4.22-2,6.26-2,3.91-2.75,6-.44,4.45-1.07,6.54-1.62,4.07-2.16,6.18-1.88,4.06-2.34,6.19,0,4.47-.36,6.61-.49,4.34-.78,6.5-1.47,4.24-1.66,6.4-.72,4.38-.82,6.55,1.64,4.41,1.65,6.58C375,194.66,374.85,197,375,199.26Z"/><path class="cls-1" d="M484.79,404.28c.59-2.21.47-4.61,1-6.83s2.59-4.09,3.12-6.32.74-4.57,1.2-6.8-.43-4.5-.73-6.64a18.82,18.82,0,0,0-2.37-5.94,18.25,18.25,0,0,0-3.74-5.08c-1.57-1.49-2.95-3.14-5-4.05-.15-.06.11-.64,0-.71a20.94,20.94,0,0,0-8.07-2.15,21.64,21.64,0,0,0-13.09,4.86c-1.73,1.46-2.57,3.91-3.71,5.91s-2.69,3.91-3.08,6.22.16,4.69-.27,7-1,4.52-1.41,6.84-1.29,4.47-1.75,6.76-1.2,4.5-1.67,6.78-.3,4.7-.77,7-.3,4.57-.75,6.8-1.48,4.35-1.93,6.57-1.53,4.35-2,6.56.1,4.68-.31,6.89-2.19,4.27-2.57,6.46.6,4.77.26,7-2,4.39-2.3,6.56c-.31,2.36.68,4.77.49,6.92-.15,1.65-.35,4-.44,6.9-.06,2-.75,4.36-.79,6.92,0,2.16.42,4.49.41,6.95,0,2.21.4,4.53.4,6.94,0,2.24-.77,4.56-.76,6.95s-.41,4.58-.39,6.95,1.41,4.58,1.43,6.93-.69,4.61-.67,7-.55,4.63-.52,7,.71,4.61.75,6.93-.41,4.64-.37,7,.14,4.64.17,6.94-.26,4.65-.22,7,1.47,4.63,1.52,6.91-1.59,4.71-1.55,7,1.18,4.67,1.23,6.92.29,4.71.34,6.93c.05,2.43-.22,4.76-.18,6.95.06,2.49.68,4.8.72,6.92.06,2.64.43,5,.47,6.94.09,3.84-1.23,6.33-1.22,7,.06,2.15,2.12,3.53,4.21,4,.37.08.62,1.24,1,1.24,1.72,0,2.79-1.89,3.63-3.46,1.5-2.82,2.5-2.3,4-5.12s1.69-2.72,3.2-5.55,1.67-2.73,3.18-5.55,1.44-2.85,3-5.67.48-3.36,2-6.19,1.58-2.78,3.08-5.6c.32-.6,1.36-1.13,1.4-1.81,0-.14,0-2.6.24-6.79.12-1.91.4-4.18.56-6.76.13-2.07-.27-4.38-.11-6.82.14-2.13.37-4.39.53-6.77.15-2.17.29-4.43.45-6.78.15-2.19.94-4.41,1.11-6.73s.46-4.46.63-6.77-1.08-4.59-.91-6.88.46-4.49.64-6.77.86-4.46,1-6.73.39-4.51.58-6.77-.69-4.61-.5-6.86,1.37-4.44,1.57-6.69-.11-4.57.1-6.81.49-4.53.71-6.75,1.53-4.44,1.76-6.65.75-4.52,1-6.72-.42-4.68-.16-6.85c.29-2.34.07-4.66.36-6.8s1.09-4.14,1.47-6.26.54-4.22,1-6.32,2.07-3.89,2.57-6,.68-4.21,1.21-6.28,1.42-4,2-6.09-.16-4.46.39-6.51C483.11,408.59,484.2,406.51,484.79,404.28Z"/><path class="cls-1" d="M536.11,379a17.88,17.88,0,0,0-2.82-5.27,17.57,17.57,0,0,0-3.84-4.49c-1.57-1.26-2.75-3.38-4.73-4.12-.14,0-.61,1.2-.75,1.15a18.43,18.43,0,0,0-6.52-1.64c-2.49,0-5.15-.41-7.34.47s-3.66,3.32-5.42,5-4.25,2.9-5.29,5.11-.24,4.85-.39,7.34c-.14,2.29-.34,4.53-.48,6.74s-.9,4.49-1,6.69-.76,4.5-.9,6.71-.65,4.5-.79,6.71.89,4.6.74,6.81-1.46,4.44-1.61,6.65.32,4.56.17,6.77-.05,4.52-.2,6.75-1.17,4.44-1.31,6.68.07,4.51-.06,6.75-.74,4.46-.87,6.71.52,4.53.4,6.79.69,4.53.57,6.79-1.83,4.39-1.95,6.66-.36,4.46-.47,6.74-.06,4.47-.16,6.76.38,4.48.29,6.77-.28,4.45-.37,6.74.11,4.46,0,6.76.62,4.47.55,6.77c-.07,2.08-1.4,4.26-1.47,6.61-.06,2.12,1.32,4.38,1.26,6.7-.06,2.14-1.73,4.33-1.79,6.61s.84,4.41.78,6.68-.73,4.39-.78,6.65,0,4.42-.06,6.66-.46,4.42-.5,6.66.58,4.44.54,6.67S489,575,489,577.2s.84,4.46.8,6.67-.26,4.45-.3,6.66-.13,4.45-.17,6.65.07,4.47,0,6.66,0,4.47-.05,6.65-.4,4.48-.44,6.65-.28,4.5-.31,6.66.11,4.52.08,6.65c0,2.34.68,4.57.64,6.67,0,2.39-.94,4.61-1,6.64,0,2.54-.27,4.77-.29,6.65-.06,4.11-.17,6.5-.18,6.65a5.48,5.48,0,0,0,3.8,5.16c.37.09.86.53,1.23.53,1.76,0,3.77-1.7,4.58-3.34,1.34-2.69.39-3.16,1.72-5.85s1.65-2.53,3-5.22.95-2.88,2.28-5.56,1.33-2.69,2.67-5.37c.23-.47.58-.69.65-1.21a53.23,53.23,0,0,1,.49-6.88c.26-1.94.91-4.19,1.25-6.79.28-2.1.7-4.37,1-6.83.28-2.16,1.81-4.28,2.13-6.68.28-2.19-.11-4.57.2-6.93s1.35-4.4,1.65-6.75.25-4.56.55-6.88.44-4.56.73-6.87.29-4.58.58-6.89.71-4.53,1-6.83.79-4.53,1.07-6.82.4-4.59.68-6.87,1-4.52,1.31-6.78-.33-4.7-.06-7,0-4.66.31-6.91.6-4.61.86-6.84.15-4.68.4-6.89c.26-2.37.58-4.65.81-6.84s.89-4.5,1.13-6.7,1.82-4.38,2.07-6.58-.7-4.67-.44-6.87,1.78-4.38,2-6.58-.44-4.63-.17-6.83.26-4.55.53-6.76,1.15-4.43,1.42-6.65.46-4.51.72-6.73.12-4.54.38-6.77,1.33-4.39,1.58-6.64-.62-4.6-.37-6.85.66-4.45.9-6.72.63-4.45.86-6.72,1.44-4.37,1.65-6.65.16-4.49.36-6.78-.38-4.52-.2-6.82-.3-4.5-.12-6.8.84-4.42,1-6.72,0-4.47.13-6.78A18.68,18.68,0,0,0,536.11,379Z"/><path class="cls-1" d="M580.79,561.2c.22-2.3,1.2-4.52,1.39-6.82s.42-4.59.58-6.89c0-.08.45-.19.46-.27,0-2.21-.25-4.43-.23-6.64s-.25-4.42-.25-6.63,0-4.42-.06-6.63.48-4.43.45-6.64-.4-4.42-.44-6.63-1.25-4.39-1.3-6.6.69-4.44.63-6.65.59-4.44.52-6.65-1.74-4.36-1.81-6.57,1.18-4.47,1.1-6.67-1.14-4.38-1.23-6.58-.19-4.42-.28-6.62-.22-4.42-.31-6.62.63-4.45.53-6.66-1.12-4.6-1.22-6.93,0-4.65-.07-7-.22-4.65-.31-7,.7-4.68.61-7-1-4.62-1.12-6.95-.21-4.65-.28-7,.94-4.68.88-7-.54-4.64-.59-7-1.34-4.63-1.37-6.95,1.71-4.69,1.69-7-1.52-4.65-1.53-7a15.67,15.67,0,0,0-1.51-6.2c-.86-2.08-.81-4.83-2.38-6.4s-4.3-1.57-6.38-2.43a15.26,15.26,0,0,0-6.22-1.05c-1.31,0-2.55-.48-3.83-.18-.13,0,0,.42-.17.45a16.17,16.17,0,0,0-6.87,2.87c-2,1.63-4.29,3.26-5.39,5.59a18.14,18.14,0,0,0-1.58,7.73c0,2.19,1.09,4.36,1.14,6.56s-.29,4.39-.23,6.58.66,4.37.73,6.56-.92,4.42-.84,6.62.93,4.35,1,6.54-.57,4.42-.48,6.61,1,4.34,1.13,6.53-.24,4.41-.12,6.59.2,4.39.32,6.58,1.09,4.33,1.21,6.52-.17,4.4,0,6.58.31,4.38.44,6.56.16,4.39.29,6.58-.21,4.41-.08,6.59-.11,4.52,0,6.78,1.36,4.44,1.49,6.7-1,4.59-.9,6.85,1.31,4.44,1.43,6.7-.78,4.57-.66,6.83.29,4.5.41,6.76.1,4.52.21,6.78,1.71,4.44,1.81,6.7-.28,4.53-.19,6.79-.79,4.55-.71,6.81,1.06,4.49,1.13,6.74-.09,4.53,0,6.78.63,4.51.67,6.77-.56,4.53-.53,6.78.47,4.52.48,6.78.49,4.55.47,6.76-.53,4.54-.6,6.75-1.15,4.48-1.28,6.7,1,4.61.87,6.82-1.51,4.41-1.73,6.63-.79,4.45-1,6.67-.66,4.46-.9,6.68.14,4.64-.1,7,.3,4.65.08,7-.43,4.55-.62,6.88-1.46,4.5-1.59,6.84.07,4.59,0,6.94-.21,4.57-.23,6.93.49,4.57.54,6.92a4.45,4.45,0,0,0,2.22,3.82c.89.84,2.38,4.48,3.41,6.55s2,4,3,5.69a12.67,12.67,0,0,0,4.41,4.61,4.46,4.46,0,0,0,2.3.17,4.2,4.2,0,0,0,2.2-.27c1.42-.77,2.81-2.08,2.92-3.7.15-2.27.33-4.53.52-6.81s.71-4.5.93-6.77.45-4.53.69-6.79.3-4.55.57-6.81-.33-4.64-.05-6.9,1.42-4.41,1.72-6.67.54-4.52.85-6.78-.31-4.65,0-6.9,1.65-4.37,2-6.62-.27-4.65.06-6.9,1.61-4.41,1.94-6.7-.37-4.7-.05-7,1.7-4.41,2-6.7-.23-4.68.07-7,.26-4.61.55-6.9,1.94-4.4,2.21-6.69-.11-4.65.13-6.94S580.57,563.49,580.79,561.2Z"/></svg>